<svg version="1.2" baseProfile="tiny-ps" xmlns="http://www.w3.org/2000/svg" viewBox="0 0 920 310" width="920" height="310">
	<title>Layer</title>
	<style>
		tspan { white-space:pre }
		.shp0 { fill: #ffffff } 
		.shp1 { fill: #fd4d4d } 
	</style>
	<g id="Layer">
		<path id="Layer" fill-rule="evenodd" class="shp0" d="M1.31 127.71L35.26 127.71L35.26 168.7L70.47 127.71L109.11 127.71L68.12 175.38L112 244L75.89 244L47.18 197.05L35.26 210.41L35.26 244L1.31 244L1.31 127.71ZM120.13 158.41L152.81 158.41L153.71 165.27C160.76 161.12 172.31 157.33 183.51 156.6L183.51 181.88C174.12 182.61 160.94 185.13 154.07 188.38L154.07 244L120.13 244L120.13 158.41ZM202.29 122.48L238.94 122.48L238.94 147.03L202.29 147.03L202.29 122.48ZM205 183.15L192.54 183.15L195.43 158.41L238.94 158.41L238.94 244L205 244L205 183.15ZM259.17 213.66L259.17 183.51L247.97 183.51L247.97 158.41L259.17 158.41L259.17 140.89L293.11 132.77L293.11 158.41L312.8 158.41L311.53 183.51L293.11 183.51L293.11 211.14C293.11 218.36 296.55 221.07 304.13 221.07C307.74 221.07 310.99 220.53 314.78 219.26L314.78 241.83C308.28 244.54 301.24 245.81 291.85 245.81C268.92 245.81 259.17 233.53 259.17 213.66ZM323.81 127.71L352.7 127.71L396.58 189.29L396.58 127.71L430.53 127.71L430.53 244L401.46 244L357.76 182.61L357.76 244L323.81 244L323.81 127.71ZM456.53 122.48L493.19 122.48L493.19 147.03L456.53 147.03L456.53 122.48ZM459.24 183.15L446.78 183.15L449.67 158.41L493.19 158.41L493.19 244L459.24 244L459.24 183.15ZM540.5 237.32L538.87 244L509.44 244L509.44 122.3L543.39 122.3L543.39 161.48C549.16 158.41 557.47 156.6 565.42 156.6C590.88 156.6 606.41 169.24 606.41 200.48C606.41 231.18 590.7 245.81 566.5 245.81C555.3 245.81 547.36 242.74 540.5 237.32ZM571.74 200.84C571.74 186.22 566.86 181.16 556.75 181.16C551.33 181.16 546.82 182.61 543.39 185.68L543.39 216.01C547 219.44 551.51 221.25 556.75 221.25C567.22 221.25 571.74 215.29 571.74 200.84ZM615.79 272.35L615.79 249.24C619.59 250.68 623.02 251.04 626.81 251.04C636.38 251.04 639.63 249.24 644.14 242.01L605.5 158.41L641.07 158.41L661.12 208.79L680.62 158.41L716.01 158.41L684.41 235.87C674.48 260.25 661.3 275.78 637.82 275.78C628.07 275.78 622.3 274.88 615.79 272.35ZM713.3 201.2C713.3 172.31 729.37 156.6 763.32 156.6C797.45 156.6 813.7 172.31 813.7 201.2C813.7 230.28 797.63 245.81 763.32 245.81C729.19 245.81 713.3 230.28 713.3 201.2ZM779.03 201.2C779.03 187.48 774.34 181.34 763.32 181.34C752.49 181.34 747.97 187.48 747.97 201.2C747.97 215.11 752.49 221.07 763.32 221.07C774.34 221.07 779.03 215.11 779.03 201.2ZM825.44 212.4L825.44 158.41L859.39 158.41L859.39 209.69C859.39 217.46 863.18 220.89 870.76 220.89C876.18 220.89 881.96 218.18 885.21 214.57L885.21 158.41L919.15 158.41L919.15 244L887.37 244L886.47 237.5C879.61 242.37 869.86 245.81 857.4 245.81C837.36 245.81 825.44 234.25 825.44 212.4Z" />
		<path id="Layer" class="shp0" d="M23.95 52.76L23.95 45.75L10.73 42.59L10.73 40.22C14.68 36.26 22.48 33.78 30.95 33.78C43.71 33.78 48.46 37.51 48.46 48.8L48.46 88L57.72 88L57.72 49.14C57.72 33.1 48.68 25.87 30.95 25.87C17.96 25.87 8.24 30.95 2.6 36.26L2.6 47.11L15.36 50.05C8.81 51.97 6.21 57.05 6.21 63.26L6.21 88L15.47 88L15.47 63.49C15.47 57.16 18.18 54.22 23.95 52.76ZM57.61 16.72L57.61 10.06L13.21 10.06L12.76 16.72L57.61 16.72ZM120.41 42.25L120.41 88L129.68 88L129.68 41.01C129.68 31.18 125.05 25.87 116.23 25.87C111.15 25.87 105.84 28.13 102.57 31.86C99.63 28.13 96.24 25.87 90.25 25.87C78.05 25.87 71.28 37.39 71.28 58.07C71.28 79.75 81.67 89.13 95.68 89.13C99.74 89.13 102.45 88.79 105.05 88L105.05 80.32C103.02 81 100.08 81.22 97.26 81.22C86.3 81.22 80.54 75.24 80.54 58.07C80.54 43.38 82.8 33.78 91.38 33.78C95.45 33.78 97.26 35.25 99.4 39.09L105.62 39.09C107.2 35.25 110.25 33.78 113.64 33.78C118.95 33.78 120.41 35.92 120.41 42.25ZM145.49 27L145.49 67.22C145.49 81.45 152.72 89.13 165.82 89.13C175.54 89.13 182.54 85.74 188.19 80.66L188.76 88L197.11 88L197.11 27L187.85 27L187.85 72.86C183.22 77.72 176.56 81.22 168.87 81.22C159.05 81.22 154.75 77.16 154.75 67.1L154.75 27L145.49 27ZM197 16.72L197 10.06L152.61 10.06L152.16 16.72L197 16.72ZM212.93 27L212.93 77.16C212.93 83.59 216.77 88 223.32 88L233.94 88L233.94 80.43L227.5 80.43C223.89 80.43 222.19 78.74 222.19 74.9L222.19 27L212.93 27ZM274.27 81.22C262.97 81.22 256.76 76.7 256.76 65.63L256.76 27L247.5 27L247.5 64.96C247.5 81 257.1 89.13 274.27 89.13C291.44 89.13 301.04 81 301.04 64.96L301.04 27L291.78 27L291.78 65.63C291.78 76.7 285.56 81.22 274.27 81.22ZM293.13 10.06L256.53 10.06L256.08 16.72L300.93 16.72L300.93 0.46L293.13 0.46L293.13 10.06ZM334.7 33.78C337.53 33.78 340.35 34.12 342.38 34.8L342.38 27.11C339.9 26.32 337.07 25.87 333.01 25.87C322.5 25.87 314.93 31.52 314.93 42.93C314.93 50.16 318.77 54.56 323.86 56.14C317.98 58.63 314.59 63.6 314.59 70.6C314.59 83.37 325.1 89.13 341.48 89.13C359.67 89.13 367.8 80.88 367.8 65.63L367.8 27L358.54 27L358.54 67.22C358.54 77.04 352.78 81.22 341.14 81.22C329.39 81.22 323.86 77.83 323.86 70.6C323.86 63.49 327.7 59.53 335.72 59.53L343.06 59.53L342.5 52.53L336.06 52.53C328.94 52.53 324.2 49.59 324.2 42.93C324.2 36.6 328.04 33.78 334.7 33.78ZM381.35 78.17L381.35 85.97C386.1 88 391.86 89.13 398.41 89.13C418.97 89.13 426.99 77.72 426.99 57.5C426.99 36.72 417.5 25.87 397.85 25.87C390.96 25.87 385.99 27 381.35 29.03L381.35 36.94C385.87 34.91 390.62 33.78 395.93 33.78C411.74 33.78 417.73 40.67 417.73 57.5C417.73 74.44 412.87 81.22 396.27 81.22C391.07 81.22 385.76 79.98 381.35 78.17Z" />
		<path id="Layer" class="shp1" d="M0 275.64L313.09 275.64L313.09 309.36L0 309.36L0 275.64Z" />
	</g>
</svg>